<?xml version="1.0" encoding="UTF-8"?> <svg xmlns="http://www.w3.org/2000/svg" width="559" height="345" viewBox="0 0 559 345" fill="none"><rect x="35" y="144.432" width="5" height="5" fill="black"></rect><path d="M47 149.91H48.0156V142.488H47V149.91Z" fill="black" fill-opacity="0.9"></path><path d="M54.2656 144.051V146.473H51.1406V144.051H50.1641V149.91H51.1406V147.371H54.2656V149.91H55.2422V144.051H54.2656Z" fill="black" fill-opacity="0.9"></path><path d="M61.6875 144.051H56.4141V144.91H58.5625V149.91H59.5391V144.91H61.6875V144.051Z" fill="black" fill-opacity="0.9"></path><path d="M65.8281 143.953C64.9688 143.953 64.2266 144.344 63.7578 145.027L63.6797 144.051H62.8594V151.863H63.8359V149.07C64.2852 149.676 64.9883 150.008 65.8281 150.008C67.332 150.008 68.4258 148.777 68.4258 146.98C68.4258 145.145 67.3906 143.953 65.8281 143.953ZM65.5938 149.148C64.4805 149.148 63.7578 148.289 63.7578 146.98C63.7578 145.672 64.4805 144.812 65.5938 144.812C66.707 144.812 67.4297 145.672 67.4297 146.98C67.4297 148.289 66.707 149.148 65.5938 149.148Z" fill="black" fill-opacity="0.9"></path><path d="M72.4102 150.008C74.1289 150.008 75.3398 148.777 75.3398 146.98C75.3398 145.145 74.1875 143.953 72.4102 143.953C70.6914 143.953 69.4805 145.184 69.4805 146.98C69.4805 148.816 70.6328 150.008 72.4102 150.008ZM72.4102 149.148C71.2383 149.148 70.4766 148.289 70.4766 146.98C70.4766 145.672 71.2383 144.812 72.4102 144.812C73.582 144.812 74.3438 145.672 74.3438 146.98C74.3438 148.289 73.582 149.148 72.4102 149.148Z" fill="black" fill-opacity="0.9"></path><path d="M80.6133 146.902C81.1211 146.668 81.4336 146.219 81.4336 145.574C81.4336 144.52 80.6328 144.051 79.4023 144.051H76.8438V149.91H79.6172C80.8477 149.91 81.5898 149.363 81.5898 148.328C81.5898 147.605 81.2383 147.137 80.6133 146.902ZM77.8008 144.871H79.4805C80.0859 144.871 80.4375 145.145 80.4375 145.672C80.4375 146.277 80.1445 146.512 79.4023 146.512H77.8008V144.871ZM79.5391 149.09H77.8008V147.293H79.4414C80.1641 147.293 80.5938 147.645 80.5938 148.211C80.5938 148.758 80.2031 149.09 79.5391 149.09Z" fill="black" fill-opacity="0.9"></path><path d="M83.6602 147.293H88.2891C88.3086 147.195 88.3086 147.098 88.3086 146.98C88.3086 145.145 87.2148 143.953 85.5352 143.953C83.8555 143.953 82.6641 145.184 82.6641 146.98C82.6641 148.719 83.7383 150.008 85.6328 150.008C86.9023 150.008 87.7031 149.52 88.1328 148.953L87.4297 148.348C87.1172 148.797 86.5703 149.148 85.6133 149.148C84.5 149.148 83.7773 148.426 83.6602 147.293ZM85.5352 144.793C86.4922 144.793 87.1562 145.457 87.293 146.512H83.6797C83.8359 145.457 84.5195 144.793 85.5352 144.793Z" fill="black" fill-opacity="0.9"></path><path d="M92.7422 143.953C91.8828 143.953 91.1406 144.344 90.6719 145.027L90.5938 144.051H89.7734V151.863H90.75V149.07C91.1992 149.676 91.9023 150.008 92.7422 150.008C94.2461 150.008 95.3398 148.777 95.3398 146.98C95.3398 145.145 94.3047 143.953 92.7422 143.953ZM92.5078 149.148C91.3945 149.148 90.6719 148.289 90.6719 146.98C90.6719 145.672 91.3945 144.812 92.5078 144.812C93.6211 144.812 94.3438 145.672 94.3438 146.98C94.3438 148.289 93.6211 149.148 92.5078 149.148Z" fill="black" fill-opacity="0.9"></path><path d="M101.043 144.051H95.7695V144.91H97.918V149.91H98.8945V144.91H101.043V144.051Z" fill="black" fill-opacity="0.9"></path><path d="M106.258 144.051L103.172 148.602V144.051H102.215V149.91H103.25L106.336 145.359V149.91H107.293V144.051H106.258Z" fill="black" fill-opacity="0.9"></path><path d="M113.016 146.902C113.523 146.668 113.836 146.219 113.836 145.574C113.836 144.52 113.035 144.051 111.805 144.051H109.246V149.91H112.02C113.25 149.91 113.992 149.363 113.992 148.328C113.992 147.605 113.641 147.137 113.016 146.902ZM110.203 144.871H111.883C112.488 144.871 112.84 145.145 112.84 145.672C112.84 146.277 112.547 146.512 111.805 146.512H110.203V144.871ZM111.941 149.09H110.203V147.293H111.844C112.566 147.293 112.996 147.645 112.996 148.211C112.996 148.758 112.605 149.09 111.941 149.09Z" fill="black" fill-opacity="0.9"></path><path d="M119.656 144.051V146.473H116.531V144.051H115.555V149.91H116.531V147.371H119.656V149.91H120.633V144.051H119.656Z" fill="black" fill-opacity="0.9"></path><path d="M126.629 144.051L123.543 148.602V144.051H122.586V149.91H123.621L126.707 145.359V149.91H127.664V144.051H126.629Z" fill="black" fill-opacity="0.9"></path><path d="M132.156 143.504C133.113 143.504 133.738 143.016 133.836 142.156L133.055 142C133.016 142.527 132.684 142.82 132.156 142.82C131.629 142.82 131.297 142.527 131.258 142L130.477 142.156C130.574 143.016 131.199 143.504 132.156 143.504ZM133.66 144.051L130.574 148.602V144.051H129.617V149.91H130.652L133.738 145.359V149.91H134.695V144.051H133.66Z" fill="black" fill-opacity="0.9"></path><rect x="35" y="166.367" width="5" height="5" fill="black"></rect><path d="M53.0547 165.352H47V172.773H48.0156V166.289H52.0391V172.773H53.0547V165.352Z" fill="black" fill-opacity="0.9"></path><path d="M59.8125 171.914C59.5391 171.914 59.4219 171.797 59.4219 171.523V168.73C59.4219 167.539 58.582 166.816 57.2344 166.816C56.2383 166.816 55.3984 167.188 54.7539 167.832L55.3594 168.457C55.8477 167.949 56.5117 167.656 57.1953 167.656C57.9766 167.656 58.5039 167.988 58.5039 168.516C58.5039 169.004 58.1328 169.062 57.1367 169.219C55.9844 169.395 54.6172 169.727 54.6172 171.133C54.6172 172.168 55.3984 172.871 56.5312 172.871C57.4102 172.871 58.1914 172.461 58.6211 171.855C58.6797 172.559 58.9727 172.812 59.6953 172.812C59.832 172.812 59.9883 172.793 60.0273 172.773V171.914H59.8125ZM56.6484 172.051C55.9844 172.051 55.5938 171.719 55.5938 171.113C55.5938 170.254 56.4531 170.117 57.2734 169.98C57.918 169.883 58.2695 169.824 58.4844 169.668V170.566C58.4844 171.367 57.625 172.051 56.6484 172.051Z" fill="black" fill-opacity="0.9"></path><path d="M63.7383 172.871C64.9492 172.871 65.9648 172.227 66.2969 171.113L65.3984 170.82C65.125 171.562 64.5195 172.012 63.7383 172.012C62.5664 172.012 61.8438 171.152 61.8438 169.844C61.8438 168.535 62.5664 167.676 63.7383 167.676C64.5195 167.676 65.1055 168.125 65.3789 168.867L66.2969 168.574C65.9844 167.461 64.9688 166.816 63.7383 166.816C62.0391 166.816 60.8477 168.047 60.8477 169.844C60.8477 171.641 62.0391 172.871 63.7383 172.871Z" fill="black" fill-opacity="0.9"></path><path d="M71.707 166.914L68.6211 171.465V166.914H67.6641V172.773H68.6992L71.7852 168.223V172.773H72.7422V166.914H71.707Z" fill="black" fill-opacity="0.9"></path><path d="M78.4648 169.766C78.9727 169.531 79.2852 169.082 79.2852 168.438C79.2852 167.383 78.4844 166.914 77.2539 166.914H74.6953V172.773H77.4688C78.6992 172.773 79.4414 172.227 79.4414 171.191C79.4414 170.469 79.0898 170 78.4648 169.766ZM75.6523 167.734H77.332C77.9375 167.734 78.2891 168.008 78.2891 168.535C78.2891 169.141 77.9961 169.375 77.2539 169.375H75.6523V167.734ZM77.3906 171.953H75.6523V170.156H77.293C78.0156 170.156 78.4453 170.508 78.4453 171.074C78.4453 171.621 78.0547 171.953 77.3906 171.953Z" fill="black" fill-opacity="0.9"></path><path d="M85.1055 166.914V169.336H81.9805V166.914H81.0039V172.773H81.9805V170.234H85.1055V172.773H86.082V166.914H85.1055Z" fill="black" fill-opacity="0.9"></path><path d="M92.0781 166.914L88.9922 171.465V166.914H88.0352V172.773H89.0703L92.1562 168.223V172.773H93.1133V166.914H92.0781Z" fill="black" fill-opacity="0.9"></path><path d="M97.6055 166.367C98.5625 166.367 99.1875 165.879 99.2852 165.02L98.5039 164.863C98.4648 165.391 98.1328 165.684 97.6055 165.684C97.0781 165.684 96.7461 165.391 96.707 164.863L95.9258 165.02C96.0234 165.879 96.6484 166.367 97.6055 166.367ZM99.1094 166.914L96.0234 171.465V166.914H95.0664V172.773H96.1016L99.1875 168.223V172.773H100.145V166.914H99.1094Z" fill="black" fill-opacity="0.9"></path><rect x="35" y="188.352" width="5" height="5" fill="black"></rect><path d="M50.5156 193.879C52.5859 193.879 54.0312 192.316 54.0312 190.07C54.0312 187.766 52.6445 186.262 50.5156 186.262C48.4453 186.262 47 187.824 47 190.07C47 192.375 48.3867 193.879 50.5156 193.879ZM50.5156 192.98C49.0117 192.98 48.0352 191.828 48.0352 190.07C48.0352 188.312 49.0117 187.16 50.5156 187.16C52.0195 187.16 52.9961 188.312 52.9961 190.07C52.9961 191.828 52.0195 192.98 50.5156 192.98Z" fill="black" fill-opacity="0.9"></path><path d="M59.0703 187.922V190.598H57.4688C56.5508 190.598 56.1797 190.266 56.1797 189.543V187.922H55.2031V189.543C55.2031 190.754 56.0039 191.496 57.4688 191.496H59.0703V193.781H60.0469V187.922H59.0703Z" fill="black" fill-opacity="0.9"></path><path d="M62.0391 187.062H63.1328V185.969H62.0391V187.062ZM62.0977 193.781H63.0742V187.922H62.0977V193.781Z" fill="black" fill-opacity="0.9"></path><path d="M69.1094 193.781H70.3203L67.6836 190.285L70.2031 187.922H68.9531L66.1016 190.637V187.922H65.125V193.781H66.1016V191.77L66.9805 190.949L69.1094 193.781Z" fill="black" fill-opacity="0.9"></path><path d="M75.457 187.922L73.6992 193.059L71.5508 187.922H70.4766L73.2305 194.211C72.9961 194.68 72.7422 194.934 72.3711 194.934C71.8047 194.934 71.6875 194.484 71.707 194.035L70.8281 194.191C70.8086 195.09 71.3164 195.832 72.3711 195.832C73.3086 195.832 73.8945 195.012 74.2266 194.094L76.4727 187.922H75.457Z" fill="black" fill-opacity="0.9"></path><path d="M82.6445 187.824C81.1406 187.824 80.0469 188.82 79.8516 190.344H78.543V187.922H77.5664V193.781H78.543V191.242H79.832C79.9688 192.863 81.043 193.879 82.6445 193.879C84.3047 193.879 85.4766 192.648 85.4766 190.852C85.4766 189.016 84.3633 187.824 82.6445 187.824ZM82.6445 193.02C81.5312 193.02 80.8086 192.16 80.8086 190.852C80.8086 189.543 81.5312 188.684 82.6445 188.684C83.7578 188.684 84.4805 189.543 84.4805 190.852C84.4805 192.16 83.7578 193.02 82.6445 193.02Z" fill="black" fill-opacity="0.9"></path><path d="M90.2617 187.922V190.598H88.6602C87.7422 190.598 87.3711 190.266 87.3711 189.543V187.922H86.3945V189.543C86.3945 190.754 87.1953 191.496 88.6602 191.496H90.2617V193.781H91.2383V187.922H90.2617Z" fill="black" fill-opacity="0.9"></path><path d="M97.2344 187.922L94.1484 192.473V187.922H93.1914V193.781H94.2266L97.3125 189.23V193.781H98.2695V187.922H97.2344Z" fill="black" fill-opacity="0.9"></path><path d="M102.762 187.375C103.719 187.375 104.344 186.887 104.441 186.027L103.66 185.871C103.621 186.398 103.289 186.691 102.762 186.691C102.234 186.691 101.902 186.398 101.863 185.871L101.082 186.027C101.18 186.887 101.805 187.375 102.762 187.375ZM104.266 187.922L101.18 192.473V187.922H100.223V193.781H101.258L104.344 189.23V193.781H105.301V187.922H104.266Z" fill="black" fill-opacity="0.9"></path><rect x="404" y="144.432" width="5" height="5" fill="black"></rect><path d="M417.016 148.992V146.551H420.102V145.652H417.016V143.406H420.98V142.488H416V149.91H421.078V148.992H417.016Z" fill="black" fill-opacity="0.9"></path><path d="M426.43 149.91H427.641L425.004 146.414L427.523 144.051H426.273L423.422 146.766V144.051H422.445V149.91H423.422V147.898L424.301 147.078L426.43 149.91Z" fill="black" fill-opacity="0.9"></path><path d="M430.824 150.008C432.035 150.008 433.051 149.363 433.383 148.25L432.484 147.957C432.211 148.699 431.605 149.148 430.824 149.148C429.652 149.148 428.93 148.289 428.93 146.98C428.93 145.672 429.652 144.812 430.824 144.812C431.605 144.812 432.191 145.262 432.465 146.004L433.383 145.711C433.07 144.598 432.055 143.953 430.824 143.953C429.125 143.953 427.934 145.184 427.934 146.98C427.934 148.777 429.125 150.008 430.824 150.008Z" fill="black" fill-opacity="0.9"></path><path d="M439.125 144.051H433.852V144.91H436V149.91H436.977V144.91H439.125V144.051Z" fill="black" fill-opacity="0.9"></path><path d="M443.266 143.953C442.406 143.953 441.664 144.344 441.195 145.027L441.117 144.051H440.297V151.863H441.273V149.07C441.723 149.676 442.426 150.008 443.266 150.008C444.77 150.008 445.863 148.777 445.863 146.98C445.863 145.145 444.828 143.953 443.266 143.953ZM443.031 149.148C441.918 149.148 441.195 148.289 441.195 146.98C441.195 145.672 441.918 144.812 443.031 144.812C444.145 144.812 444.867 145.672 444.867 146.98C444.867 148.289 444.145 149.148 443.031 149.148Z" fill="black" fill-opacity="0.9"></path><path d="M451.84 149.051C451.566 149.051 451.449 148.934 451.449 148.66V145.867C451.449 144.676 450.609 143.953 449.262 143.953C448.266 143.953 447.426 144.324 446.781 144.969L447.387 145.594C447.875 145.086 448.539 144.793 449.223 144.793C450.004 144.793 450.531 145.125 450.531 145.652C450.531 146.141 450.16 146.199 449.164 146.355C448.012 146.531 446.645 146.863 446.645 148.27C446.645 149.305 447.426 150.008 448.559 150.008C449.438 150.008 450.219 149.598 450.648 148.992C450.707 149.695 451 149.949 451.723 149.949C451.859 149.949 452.016 149.93 452.055 149.91V149.051H451.84ZM448.676 149.188C448.012 149.188 447.621 148.855 447.621 148.25C447.621 147.391 448.48 147.254 449.301 147.117C449.945 147.02 450.297 146.961 450.512 146.805V147.703C450.512 148.504 449.652 149.188 448.676 149.188Z" fill="black" fill-opacity="0.9"></path><path d="M457.191 146.902C457.699 146.668 458.012 146.219 458.012 145.574C458.012 144.52 457.211 144.051 455.98 144.051H453.422V149.91H456.195C457.426 149.91 458.168 149.363 458.168 148.328C458.168 147.605 457.816 147.137 457.191 146.902ZM454.379 144.871H456.059C456.664 144.871 457.016 145.145 457.016 145.672C457.016 146.277 456.723 146.512 455.98 146.512H454.379V144.871ZM456.117 149.09H454.379V147.293H456.02C456.742 147.293 457.172 147.645 457.172 148.211C457.172 148.758 456.781 149.09 456.117 149.09Z" fill="black" fill-opacity="0.9"></path><path d="M460.238 147.293H464.867C464.887 147.195 464.887 147.098 464.887 146.98C464.887 145.145 463.793 143.953 462.113 143.953C460.434 143.953 459.242 145.184 459.242 146.98C459.242 148.719 460.316 150.008 462.211 150.008C463.48 150.008 464.281 149.52 464.711 148.953L464.008 148.348C463.695 148.797 463.148 149.148 462.191 149.148C461.078 149.148 460.355 148.426 460.238 147.293ZM462.113 144.793C463.07 144.793 463.734 145.457 463.871 146.512H460.258C460.414 145.457 461.098 144.793 462.113 144.793Z" fill="black" fill-opacity="0.9"></path><path d="M469.32 143.953C468.461 143.953 467.719 144.344 467.25 145.027L467.172 144.051H466.352V151.863H467.328V149.07C467.777 149.676 468.48 150.008 469.32 150.008C470.824 150.008 471.918 148.777 471.918 146.98C471.918 145.145 470.883 143.953 469.32 143.953ZM469.086 149.148C467.973 149.148 467.25 148.289 467.25 146.98C467.25 145.672 467.973 144.812 469.086 144.812C470.199 144.812 470.922 145.672 470.922 146.98C470.922 148.289 470.199 149.148 469.086 149.148Z" fill="black" fill-opacity="0.9"></path><path d="M477.621 144.051H472.348V144.91H474.496V149.91H475.473V144.91H477.621V144.051Z" fill="black" fill-opacity="0.9"></path><path d="M482.836 144.051L479.75 148.602V144.051H478.793V149.91H479.828L482.914 145.359V149.91H483.871V144.051H482.836Z" fill="black" fill-opacity="0.9"></path><path d="M489.594 146.902C490.102 146.668 490.414 146.219 490.414 145.574C490.414 144.52 489.613 144.051 488.383 144.051H485.824V149.91H488.598C489.828 149.91 490.57 149.363 490.57 148.328C490.57 147.605 490.219 147.137 489.594 146.902ZM486.781 144.871H488.461C489.066 144.871 489.418 145.145 489.418 145.672C489.418 146.277 489.125 146.512 488.383 146.512H486.781V144.871ZM488.52 149.09H486.781V147.293H488.422C489.145 147.293 489.574 147.645 489.574 148.211C489.574 148.758 489.184 149.09 488.52 149.09Z" fill="black" fill-opacity="0.9"></path><path d="M496.234 144.051V146.473H493.109V144.051H492.133V149.91H493.109V147.371H496.234V149.91H497.211V144.051H496.234Z" fill="black" fill-opacity="0.9"></path><path d="M503.207 144.051L500.121 148.602V144.051H499.164V149.91H500.199L503.285 145.359V149.91H504.242V144.051H503.207Z" fill="black" fill-opacity="0.9"></path><path d="M508.734 143.504C509.691 143.504 510.316 143.016 510.414 142.156L509.633 142C509.594 142.527 509.262 142.82 508.734 142.82C508.207 142.82 507.875 142.527 507.836 142L507.055 142.156C507.152 143.016 507.777 143.504 508.734 143.504ZM510.238 144.051L507.152 148.602V144.051H506.195V149.91H507.23L510.316 145.359V149.91H511.273V144.051H510.238Z" fill="black" fill-opacity="0.9"></path><rect x="404" y="166.318" width="5" height="5" fill="black"></rect><path d="M422.23 172.773H423.305L420.258 165.352H419.047L416 172.773H417.055L417.797 170.918H421.488L422.23 172.773ZM418.148 170.02L419.633 166.309L421.117 170.02H418.148Z" fill="black" fill-opacity="0.9"></path><path d="M428.422 172.773H429.633L426.996 169.277L429.516 166.914H428.266L425.414 169.629V166.914H424.438V172.773H425.414V170.762L426.293 169.941L428.422 172.773Z" fill="black" fill-opacity="0.9"></path><path d="M435.102 166.914H429.828V167.773H431.977V172.773H432.953V167.773H435.102V166.914Z" fill="black" fill-opacity="0.9"></path><path d="M440.316 166.914L437.23 171.465V166.914H436.273V172.773H437.309L440.395 168.223V172.773H441.352V166.914H440.316Z" fill="black" fill-opacity="0.9"></path><path d="M447.074 169.766C447.582 169.531 447.895 169.082 447.895 168.438C447.895 167.383 447.094 166.914 445.863 166.914H443.305V172.773H446.078C447.309 172.773 448.051 172.227 448.051 171.191C448.051 170.469 447.699 170 447.074 169.766ZM444.262 167.734H445.941C446.547 167.734 446.898 168.008 446.898 168.535C446.898 169.141 446.605 169.375 445.863 169.375H444.262V167.734ZM446 171.953H444.262V170.156H445.902C446.625 170.156 447.055 170.508 447.055 171.074C447.055 171.621 446.664 171.953 446 171.953Z" fill="black" fill-opacity="0.9"></path><path d="M453.715 166.914V169.336H450.59V166.914H449.613V172.773H450.59V170.234H453.715V172.773H454.691V166.914H453.715Z" fill="black" fill-opacity="0.9"></path><path d="M460.688 166.914L457.602 171.465V166.914H456.645V172.773H457.68L460.766 168.223V172.773H461.723V166.914H460.688Z" fill="black" fill-opacity="0.9"></path><path d="M466.215 166.367C467.172 166.367 467.797 165.879 467.895 165.02L467.113 164.863C467.074 165.391 466.742 165.684 466.215 165.684C465.688 165.684 465.355 165.391 465.316 164.863L464.535 165.02C464.633 165.879 465.258 166.367 466.215 166.367ZM467.719 166.914L464.633 171.465V166.914H463.676V172.773H464.711L467.797 168.223V172.773H468.754V166.914H467.719Z" fill="black" fill-opacity="0.9"></path><rect x="404" y="188.01" width="5" height="5" fill="black"></rect><path d="M423.5 192.746H422.641V186.262H417.016V189.562C417.016 191.145 416.938 192.141 416.742 192.746H416V195.246H416.977V193.684H422.523V195.246H423.5V192.746ZM417.738 192.746C417.914 191.984 418.031 190.793 418.031 189.562V187.199H421.625V192.746H417.738Z" fill="black" fill-opacity="0.9"></path><path d="M424.906 186.965H426V185.871H424.906V186.965ZM424.965 193.684H425.941V187.824H424.965V193.684Z" fill="black" fill-opacity="0.9"></path><path d="M433.07 187.727C431.566 187.727 430.473 188.723 430.277 190.246H428.969V187.824H427.992V193.684H428.969V191.145H430.258C430.395 192.766 431.469 193.781 433.07 193.781C434.73 193.781 435.902 192.551 435.902 190.754C435.902 188.918 434.789 187.727 433.07 187.727ZM433.07 192.922C431.957 192.922 431.234 192.062 431.234 190.754C431.234 189.445 431.957 188.586 433.07 188.586C434.184 188.586 434.906 189.445 434.906 190.754C434.906 192.062 434.184 192.922 433.07 192.922Z" fill="black" fill-opacity="0.9"></path><path d="M440.688 187.824V190.5H439.086C438.168 190.5 437.797 190.168 437.797 189.445V187.824H436.82V189.445C436.82 190.656 437.621 191.398 439.086 191.398H440.688V193.684H441.664V187.824H440.688Z" fill="black" fill-opacity="0.9"></path><path d="M447.66 187.824L444.574 192.375V187.824H443.617V193.684H444.652L447.738 189.133V193.684H448.695V187.824H447.66Z" fill="black" fill-opacity="0.9"></path><path d="M453.188 187.277C454.145 187.277 454.77 186.789 454.867 185.93L454.086 185.773C454.047 186.301 453.715 186.594 453.188 186.594C452.66 186.594 452.328 186.301 452.289 185.773L451.508 185.93C451.605 186.789 452.23 187.277 453.188 187.277ZM454.691 187.824L451.605 192.375V187.824H450.648V193.684H451.684L454.77 189.133V193.684H455.727V187.824H454.691Z" fill="black" fill-opacity="0.9"></path><path d="M168.102 40.0977C170.172 40.0977 171.617 38.5352 171.617 36.2891C171.617 33.9844 170.23 32.4805 168.102 32.4805C166.031 32.4805 164.586 34.043 164.586 36.2891C164.586 38.5938 165.973 40.0977 168.102 40.0977ZM168.102 39.1992C166.598 39.1992 165.621 38.0469 165.621 36.2891C165.621 34.5312 166.598 33.3789 168.102 33.3789C169.605 33.3789 170.582 34.5312 170.582 36.2891C170.582 38.0469 169.605 39.1992 168.102 39.1992Z" fill="black" fill-opacity="0.9"></path><path d="M176.148 34.043C175.289 34.043 174.547 34.4336 174.078 35.1172L174 34.1406H173.18V41.9531H174.156V39.1602C174.605 39.7656 175.309 40.0977 176.148 40.0977C177.652 40.0977 178.746 38.8672 178.746 37.0703C178.746 35.2344 177.711 34.043 176.148 34.043ZM175.914 39.2383C174.801 39.2383 174.078 38.3789 174.078 37.0703C174.078 35.7617 174.801 34.9023 175.914 34.9023C177.027 34.9023 177.75 35.7617 177.75 37.0703C177.75 38.3789 177.027 39.2383 175.914 39.2383Z" fill="black" fill-opacity="0.9"></path><path d="M180.289 33.2812H181.383V32.1875H180.289V33.2812ZM180.348 40H181.324V34.1406H180.348V40Z" fill="black" fill-opacity="0.9"></path><path d="M185.816 39.2383C184.742 39.2383 184.039 38.5352 183.922 37.4414H186.598V36.582H183.941C184.098 35.5469 184.781 34.9023 185.816 34.9023C186.598 34.9023 187.203 35.3516 187.477 36.0742L188.395 35.7812C188.062 34.6875 187.066 34.043 185.816 34.043C184.117 34.043 182.926 35.2734 182.926 37.0703C182.926 38.8672 184.117 40.0977 185.816 40.0977C187.047 40.0977 188.062 39.4531 188.395 38.3594L187.496 38.0664C187.223 38.7891 186.598 39.2383 185.816 39.2383Z" fill="black" fill-opacity="0.9"></path><path d="M193.863 34.1406V36.5625H190.738V34.1406H189.762V40H190.738V37.4609H193.863V40H194.84V34.1406H193.863Z" fill="black" fill-opacity="0.9"></path><path d="M201.285 34.1406H196.012V35H198.16V40H199.137V35H201.285V34.1406Z" fill="black" fill-opacity="0.9"></path><path d="M204.645 40.0977C206.363 40.0977 207.574 38.8672 207.574 37.0703C207.574 35.2344 206.422 34.043 204.645 34.043C202.926 34.043 201.715 35.2734 201.715 37.0703C201.715 38.9062 202.867 40.0977 204.645 40.0977ZM204.645 39.2383C203.473 39.2383 202.711 38.3789 202.711 37.0703C202.711 35.7617 203.473 34.9023 204.645 34.9023C205.816 34.9023 206.578 35.7617 206.578 37.0703C206.578 38.3789 205.816 39.2383 204.645 39.2383Z" fill="black" fill-opacity="0.9"></path><path d="M212.848 36.9922C213.355 36.7578 213.668 36.3086 213.668 35.6641C213.668 34.6094 212.867 34.1406 211.637 34.1406H209.078V40H211.852C213.082 40 213.824 39.4531 213.824 38.418C213.824 37.6953 213.473 37.2266 212.848 36.9922ZM210.035 34.9609H211.715C212.32 34.9609 212.672 35.2344 212.672 35.7617C212.672 36.3672 212.379 36.6016 211.637 36.6016H210.035V34.9609ZM211.773 39.1797H210.035V37.3828H211.676C212.398 37.3828 212.828 37.7344 212.828 38.3008C212.828 38.8477 212.438 39.1797 211.773 39.1797Z" fill="black" fill-opacity="0.9"></path><path d="M219.938 39.1406C219.664 39.1406 219.547 39.0234 219.547 38.75V35.957C219.547 34.7656 218.707 34.043 217.359 34.043C216.363 34.043 215.523 34.4141 214.879 35.0586L215.484 35.6836C215.973 35.1758 216.637 34.8828 217.32 34.8828C218.102 34.8828 218.629 35.2148 218.629 35.7422C218.629 36.2305 218.258 36.2891 217.262 36.4453C216.109 36.6211 214.742 36.9531 214.742 38.3594C214.742 39.3945 215.523 40.0977 216.656 40.0977C217.535 40.0977 218.316 39.6875 218.746 39.082C218.805 39.7852 219.098 40.0391 219.82 40.0391C219.957 40.0391 220.113 40.0195 220.152 40V39.1406H219.938ZM216.773 39.2773C216.109 39.2773 215.719 38.9453 215.719 38.3398C215.719 37.4805 216.578 37.3438 217.398 37.207C218.043 37.1094 218.395 37.0508 218.609 36.8945V37.793C218.609 38.5938 217.75 39.2773 216.773 39.2773Z" fill="black" fill-opacity="0.9"></path><path d="M225.621 34.1406V36.5625H222.496V34.1406H221.52V40H222.496V37.4609H225.621V40H226.598V34.1406H225.621Z" fill="black" fill-opacity="0.9"></path><path d="M232.594 34.1406L229.508 38.6914V34.1406H228.551V40H229.586L232.672 35.4492V40H233.629V34.1406H232.594Z" fill="black" fill-opacity="0.9"></path><path d="M238.121 33.5938C239.078 33.5938 239.703 33.1055 239.801 32.2461L239.02 32.0898C238.98 32.6172 238.648 32.9102 238.121 32.9102C237.594 32.9102 237.262 32.6172 237.223 32.0898L236.441 32.2461C236.539 33.1055 237.164 33.5938 238.121 33.5938ZM239.625 34.1406L236.539 38.6914V34.1406H235.582V40H236.617L239.703 35.4492V40H240.66V34.1406H239.625Z" fill="black" fill-opacity="0.9"></path><path d="M249.84 34.1406V36.5625H246.715V34.1406H245.738V40H246.715V37.4609H249.84V40H250.816V34.1406H249.84Z" fill="black" fill-opacity="0.9"></path><path d="M257.379 39.1406C257.105 39.1406 256.988 39.0234 256.988 38.75V35.957C256.988 34.7656 256.148 34.043 254.801 34.043C253.805 34.043 252.965 34.4141 252.32 35.0586L252.926 35.6836C253.414 35.1758 254.078 34.8828 254.762 34.8828C255.543 34.8828 256.07 35.2148 256.07 35.7422C256.07 36.2305 255.699 36.2891 254.703 36.4453C253.551 36.6211 252.184 36.9531 252.184 38.3594C252.184 39.3945 252.965 40.0977 254.098 40.0977C254.977 40.0977 255.758 39.6875 256.188 39.082C256.246 39.7852 256.539 40.0391 257.262 40.0391C257.398 40.0391 257.555 40.0195 257.594 40V39.1406H257.379ZM254.215 39.2773C253.551 39.2773 253.16 38.9453 253.16 38.3398C253.16 37.4805 254.02 37.3438 254.84 37.207C255.484 37.1094 255.836 37.0508 256.051 36.8945V37.793C256.051 38.5938 255.191 39.2773 254.215 39.2773Z" fill="black" fill-opacity="0.9"></path><path d="M261.988 33.3594H263.512V32.1094H261.988V33.3594ZM262.047 40H263.453V34.1406H262.047V40Z" fill="black" fill-opacity="0.9"></path><path d="M269.195 34.1406V36.3672H266.656V34.1406H265.25V40H266.656V37.6562H269.195V40H270.602V34.1406H269.195Z" fill="black" fill-opacity="0.9"></path><path d="M278.805 34.0625C278.16 34.0625 277.613 34.2969 277.223 34.7852V32.1875H275.816V34.7656C275.426 34.2969 274.898 34.0625 274.215 34.0625C272.809 34.0625 271.871 35.2734 271.871 37.0703C271.871 38.9062 272.789 40.0781 274.215 40.0781C274.879 40.0781 275.426 39.8242 275.816 39.3359V41.9531H277.223V39.375C277.613 39.8438 278.141 40.0781 278.805 40.0781C280.211 40.0781 281.148 38.8672 281.148 37.0703C281.148 35.2344 280.23 34.0625 278.805 34.0625ZM274.586 38.9258C273.805 38.9258 273.297 38.2031 273.297 37.0703C273.297 35.9375 273.805 35.2148 274.586 35.2148C275.387 35.2148 275.875 35.9375 275.875 37.0703C275.875 38.2031 275.387 38.9258 274.586 38.9258ZM278.453 38.9258C277.633 38.9258 277.145 38.2031 277.145 37.0703C277.145 35.9375 277.633 35.2148 278.453 35.2148C279.234 35.2148 279.723 35.9375 279.723 37.0703C279.723 38.2031 279.234 38.9258 278.453 38.9258Z" fill="black" fill-opacity="0.9"></path><path d="M285.035 40.0977C286.832 40.0977 288.062 38.8867 288.062 37.0703C288.062 35.2344 286.871 34.043 285.035 34.043C283.238 34.043 282.008 35.2539 282.008 37.0703C282.008 38.9062 283.199 40.0977 285.035 40.0977ZM285.035 38.9258C284.059 38.9258 283.453 38.2227 283.453 37.0703C283.453 35.918 284.059 35.2148 285.035 35.2148C286.012 35.2148 286.617 35.918 286.617 37.0703C286.617 38.2227 286.012 38.9258 285.035 38.9258Z" fill="black" fill-opacity="0.9"></path><path d="M292.613 34.043C291.793 34.043 291.109 34.3945 290.66 35.0195L290.582 34.1406H289.332V41.9531H290.738V39.2578C291.188 39.8047 291.832 40.0977 292.613 40.0977C294.098 40.0977 295.133 38.8867 295.133 37.0703C295.133 35.2344 294.137 34.043 292.613 34.043ZM292.184 38.9258C291.246 38.9258 290.68 38.2031 290.68 37.0703C290.68 35.9375 291.246 35.2148 292.184 35.2148C293.121 35.2148 293.707 35.9375 293.707 37.0703C293.707 38.2031 293.121 38.9258 292.184 38.9258Z" fill="black" fill-opacity="0.9"></path><path d="M303.648 34.1406H301.578L300.055 38.3984L298.512 34.1406H296.402V40H297.77V35.7031L299.332 40H300.738L302.301 35.7031V40H303.648V34.1406Z" fill="black" fill-opacity="0.9"></path><path d="M310.309 38.7891C310.074 38.7891 309.957 38.6719 309.957 38.4375V35.9961C309.957 34.7852 309.078 34.043 307.594 34.043C306.559 34.043 305.699 34.3945 305.016 35.0391L305.855 35.918C306.324 35.4492 306.891 35.1953 307.516 35.1953C308.219 35.1953 308.648 35.4688 308.648 35.8789C308.648 36.2695 308.16 36.3672 307.398 36.4648C306.285 36.6016 304.879 36.8945 304.879 38.3789C304.879 39.4141 305.66 40.0977 306.793 40.0977C307.652 40.0977 308.414 39.7266 308.844 39.1406C308.941 39.7656 309.312 40.0391 310.035 40.0391C310.289 40.0391 310.445 40.0195 310.543 40V38.7891H310.309ZM307.086 38.9844C306.559 38.9844 306.246 38.7109 306.246 38.2617C306.246 37.6172 306.891 37.5195 307.555 37.4023C308.043 37.3242 308.375 37.2656 308.609 37.1289V37.7344C308.609 38.418 307.926 38.9844 307.086 38.9844Z" fill="black" fill-opacity="0.9"></path><path d="M317.047 38.7305V34.1406H315.641V38.7305H313.16V34.1406H311.754V40H316.48V41.3672H317.828V38.7305H317.047Z" fill="black" fill-opacity="0.9"></path><path d="M319.039 33.3594H320.562V32.1094H319.039V33.3594ZM319.098 40H320.504V34.1406H319.098V40Z" fill="black" fill-opacity="0.9"></path><path d="M327.672 34.043C326.168 34.043 325.094 34.9414 324.82 36.3672H323.707V34.1406H322.301V40H323.707V37.6562H324.801C325.016 39.1602 326.09 40.0977 327.672 40.0977C329.41 40.0977 330.602 38.8867 330.602 37.0703C330.602 35.2344 329.449 34.043 327.672 34.043ZM327.672 38.9258C326.754 38.9258 326.168 38.2227 326.168 37.0703C326.168 35.918 326.754 35.2148 327.672 35.2148C328.609 35.2148 329.156 35.918 329.156 37.0703C329.156 38.2227 328.609 38.9258 327.672 38.9258Z" fill="black" fill-opacity="0.9"></path><path d="M335.035 33.3594H336.559V32.1094H335.035V33.3594ZM335.094 40H336.5V34.1406H335.094V40Z" fill="black" fill-opacity="0.9"></path><path d="M347.945 34.0625C347.301 34.0625 346.754 34.2969 346.363 34.7852V32.1875H344.957V34.7656C344.566 34.2969 344.039 34.0625 343.355 34.0625C341.949 34.0625 341.012 35.2734 341.012 37.0703C341.012 38.9062 341.93 40.0781 343.355 40.0781C344.02 40.0781 344.566 39.8242 344.957 39.3359V41.9531H346.363V39.375C346.754 39.8438 347.281 40.0781 347.945 40.0781C349.352 40.0781 350.289 38.8672 350.289 37.0703C350.289 35.2344 349.371 34.0625 347.945 34.0625ZM343.727 38.9258C342.945 38.9258 342.438 38.2031 342.438 37.0703C342.438 35.9375 342.945 35.2148 343.727 35.2148C344.527 35.2148 345.016 35.9375 345.016 37.0703C345.016 38.2031 344.527 38.9258 343.727 38.9258ZM347.594 38.9258C346.773 38.9258 346.285 38.2031 346.285 37.0703C346.285 35.9375 346.773 35.2148 347.594 35.2148C348.375 35.2148 348.863 35.9375 348.863 37.0703C348.863 38.2031 348.375 38.9258 347.594 38.9258Z" fill="black" fill-opacity="0.9"></path><path d="M356.402 38.7891C356.168 38.7891 356.051 38.6719 356.051 38.4375V35.9961C356.051 34.7852 355.172 34.043 353.688 34.043C352.652 34.043 351.793 34.3945 351.109 35.0391L351.949 35.918C352.418 35.4492 352.984 35.1953 353.609 35.1953C354.312 35.1953 354.742 35.4688 354.742 35.8789C354.742 36.2695 354.254 36.3672 353.492 36.4648C352.379 36.6016 350.973 36.8945 350.973 38.3789C350.973 39.4141 351.754 40.0977 352.887 40.0977C353.746 40.0977 354.508 39.7266 354.938 39.1406C355.035 39.7656 355.406 40.0391 356.129 40.0391C356.383 40.0391 356.539 40.0195 356.637 40V38.7891H356.402ZM353.18 38.9844C352.652 38.9844 352.34 38.7109 352.34 38.2617C352.34 37.6172 352.984 37.5195 353.648 37.4023C354.137 37.3242 354.469 37.2656 354.703 37.1289V37.7344C354.703 38.418 354.02 38.9844 353.18 38.9844Z" fill="black" fill-opacity="0.9"></path><path d="M361.832 40H363.512L361.031 36.4453L363.414 34.1406H361.656L359.254 36.6016V34.1406H357.848V40H359.254V38.1836L360.055 37.4219L361.832 40Z" fill="black" fill-opacity="0.9"></path><path d="M369.293 34.1406H363.766V35.4102H365.836V40H367.242V35.4102H369.293V34.1406Z" fill="black" fill-opacity="0.9"></path><path d="M374.293 34.1406L371.715 38.0078V34.1406H370.328V40H371.734L374.332 36.1328V40H375.699V34.1406H374.293Z" fill="black" fill-opacity="0.9"></path><path d="M199.102 313.098C201.172 313.098 202.617 311.535 202.617 309.289C202.617 306.984 201.23 305.48 199.102 305.48C197.031 305.48 195.586 307.043 195.586 309.289C195.586 311.594 196.973 313.098 199.102 313.098ZM199.102 312.199C197.598 312.199 196.621 311.047 196.621 309.289C196.621 307.531 197.598 306.379 199.102 306.379C200.605 306.379 201.582 307.531 201.582 309.289C201.582 311.047 200.605 312.199 199.102 312.199Z" fill="black" fill-opacity="0.9"></path><path d="M207.148 307.043C206.289 307.043 205.547 307.434 205.078 308.117L205 307.141H204.18V314.953H205.156V312.16C205.605 312.766 206.309 313.098 207.148 313.098C208.652 313.098 209.746 311.867 209.746 310.07C209.746 308.234 208.711 307.043 207.148 307.043ZM206.914 312.238C205.801 312.238 205.078 311.379 205.078 310.07C205.078 308.762 205.801 307.902 206.914 307.902C208.027 307.902 208.75 308.762 208.75 310.07C208.75 311.379 208.027 312.238 206.914 312.238Z" fill="black" fill-opacity="0.9"></path><path d="M211.289 306.281H212.383V305.188H211.289V306.281ZM211.348 313H212.324V307.141H211.348V313Z" fill="black" fill-opacity="0.9"></path><path d="M216.816 312.238C215.742 312.238 215.039 311.535 214.922 310.441H217.598V309.582H214.941C215.098 308.547 215.781 307.902 216.816 307.902C217.598 307.902 218.203 308.352 218.477 309.074L219.395 308.781C219.062 307.688 218.066 307.043 216.816 307.043C215.117 307.043 213.926 308.273 213.926 310.07C213.926 311.867 215.117 313.098 216.816 313.098C218.047 313.098 219.062 312.453 219.395 311.359L218.496 311.066C218.223 311.789 217.598 312.238 216.816 312.238Z" fill="black" fill-opacity="0.9"></path><path d="M224.863 307.141V309.562H221.738V307.141H220.762V313H221.738V310.461H224.863V313H225.84V307.141H224.863Z" fill="black" fill-opacity="0.9"></path><path d="M232.285 307.141H227.012V308H229.16V313H230.137V308H232.285V307.141Z" fill="black" fill-opacity="0.9"></path><path d="M235.645 313.098C237.363 313.098 238.574 311.867 238.574 310.07C238.574 308.234 237.422 307.043 235.645 307.043C233.926 307.043 232.715 308.273 232.715 310.07C232.715 311.906 233.867 313.098 235.645 313.098ZM235.645 312.238C234.473 312.238 233.711 311.379 233.711 310.07C233.711 308.762 234.473 307.902 235.645 307.902C236.816 307.902 237.578 308.762 237.578 310.07C237.578 311.379 236.816 312.238 235.645 312.238Z" fill="black" fill-opacity="0.9"></path><path d="M243.848 309.992C244.355 309.758 244.668 309.309 244.668 308.664C244.668 307.609 243.867 307.141 242.637 307.141H240.078V313H242.852C244.082 313 244.824 312.453 244.824 311.418C244.824 310.695 244.473 310.227 243.848 309.992ZM241.035 307.961H242.715C243.32 307.961 243.672 308.234 243.672 308.762C243.672 309.367 243.379 309.602 242.637 309.602H241.035V307.961ZM242.773 312.18H241.035V310.383H242.676C243.398 310.383 243.828 310.734 243.828 311.301C243.828 311.848 243.438 312.18 242.773 312.18Z" fill="black" fill-opacity="0.9"></path><path d="M250.938 312.141C250.664 312.141 250.547 312.023 250.547 311.75V308.957C250.547 307.766 249.707 307.043 248.359 307.043C247.363 307.043 246.523 307.414 245.879 308.059L246.484 308.684C246.973 308.176 247.637 307.883 248.32 307.883C249.102 307.883 249.629 308.215 249.629 308.742C249.629 309.23 249.258 309.289 248.262 309.445C247.109 309.621 245.742 309.953 245.742 311.359C245.742 312.395 246.523 313.098 247.656 313.098C248.535 313.098 249.316 312.688 249.746 312.082C249.805 312.785 250.098 313.039 250.82 313.039C250.957 313.039 251.113 313.02 251.152 313V312.141H250.938ZM247.773 312.277C247.109 312.277 246.719 311.945 246.719 311.34C246.719 310.48 247.578 310.344 248.398 310.207C249.043 310.109 249.395 310.051 249.609 309.895V310.793C249.609 311.594 248.75 312.277 247.773 312.277Z" fill="black" fill-opacity="0.9"></path><path d="M256.621 307.141V309.562H253.496V307.141H252.52V313H253.496V310.461H256.621V313H257.598V307.141H256.621Z" fill="black" fill-opacity="0.9"></path><path d="M263.594 307.141L260.508 311.691V307.141H259.551V313H260.586L263.672 308.449V313H264.629V307.141H263.594Z" fill="black" fill-opacity="0.9"></path><path d="M269.121 306.594C270.078 306.594 270.703 306.105 270.801 305.246L270.02 305.09C269.98 305.617 269.648 305.91 269.121 305.91C268.594 305.91 268.262 305.617 268.223 305.09L267.441 305.246C267.539 306.105 268.164 306.594 269.121 306.594ZM270.625 307.141L267.539 311.691V307.141H266.582V313H267.617L270.703 308.449V313H271.66V307.141H270.625Z" fill="black" fill-opacity="0.9"></path><path d="M280.84 307.141V309.562H277.715V307.141H276.738V313H277.715V310.461H280.84V313H281.816V307.141H280.84Z" fill="black" fill-opacity="0.9"></path><path d="M288.379 312.141C288.105 312.141 287.988 312.023 287.988 311.75V308.957C287.988 307.766 287.148 307.043 285.801 307.043C284.805 307.043 283.965 307.414 283.32 308.059L283.926 308.684C284.414 308.176 285.078 307.883 285.762 307.883C286.543 307.883 287.07 308.215 287.07 308.742C287.07 309.23 286.699 309.289 285.703 309.445C284.551 309.621 283.184 309.953 283.184 311.359C283.184 312.395 283.965 313.098 285.098 313.098C285.977 313.098 286.758 312.688 287.188 312.082C287.246 312.785 287.539 313.039 288.262 313.039C288.398 313.039 288.555 313.02 288.594 313V312.141H288.379ZM285.215 312.277C284.551 312.277 284.16 311.945 284.16 311.34C284.16 310.48 285.02 310.344 285.84 310.207C286.484 310.109 286.836 310.051 287.051 309.895V310.793C287.051 311.594 286.191 312.277 285.215 312.277Z" fill="black" fill-opacity="0.9"></path><path d="M295.527 313.098C296.836 313.098 297.871 312.453 298.203 311.34L296.875 310.93C296.641 311.555 296.172 311.926 295.508 311.926C294.57 311.926 293.984 311.203 293.984 310.07C293.984 308.938 294.57 308.215 295.508 308.215C296.172 308.215 296.641 308.586 296.855 309.211L298.203 308.801C297.871 307.688 296.836 307.043 295.527 307.043C293.75 307.043 292.539 308.254 292.539 310.07C292.539 311.887 293.75 313.098 295.527 313.098Z" fill="black" fill-opacity="0.9"></path><path d="M304.062 307.141H298.535V308.41H300.605V313H302.012V308.41H304.062V307.141Z" fill="black" fill-opacity="0.9"></path><path d="M307.422 313.098C309.219 313.098 310.449 311.887 310.449 310.07C310.449 308.234 309.258 307.043 307.422 307.043C305.625 307.043 304.395 308.254 304.395 310.07C304.395 311.906 305.586 313.098 307.422 313.098ZM307.422 311.926C306.445 311.926 305.84 311.223 305.84 310.07C305.84 308.918 306.445 308.215 307.422 308.215C308.398 308.215 309.004 308.918 309.004 310.07C309.004 311.223 308.398 311.926 307.422 311.926Z" fill="black" fill-opacity="0.9"></path><path d="M314.297 313.098C315.605 313.098 316.641 312.453 316.973 311.34L315.645 310.93C315.41 311.555 314.941 311.926 314.277 311.926C313.34 311.926 312.754 311.203 312.754 310.07C312.754 308.938 313.34 308.215 314.277 308.215C314.941 308.215 315.41 308.586 315.625 309.211L316.973 308.801C316.641 307.688 315.605 307.043 314.297 307.043C312.52 307.043 311.309 308.254 311.309 310.07C311.309 311.887 312.52 313.098 314.297 313.098Z" fill="black" fill-opacity="0.9"></path><path d="M322.129 307.141L320.684 311.77L318.809 307.141H317.266L320 313.332C319.805 313.664 319.609 313.82 319.355 313.82C318.906 313.82 318.77 313.488 318.75 313.02L317.461 313.254C317.5 314.152 317.969 315.051 319.316 315.051C320.352 315.051 321.074 314.309 321.504 313.078L323.594 307.141H322.129Z" fill="black" fill-opacity="0.9"></path><path d="M328.496 307.141V309.367H325.957V307.141H324.551V313H325.957V310.656H328.496V313H329.902V307.141H328.496Z" fill="black" fill-opacity="0.9"></path><path d="M335.566 313H337.246L334.766 309.445L337.148 307.141H335.391L332.988 309.602V307.141H331.582V313H332.988V311.184L333.789 310.422L335.566 313Z" fill="black" fill-opacity="0.9"></path><path d="M342.109 307.141L339.531 311.008V307.141H338.145V313H339.551L342.148 309.133V313H343.516V307.141H342.109Z" fill="black" fill-opacity="0.9"></path><path d="M205.674 147.088C207.098 147.088 208.152 146.35 208.539 145.137L207.273 144.68C207.01 145.523 206.447 145.945 205.656 145.945C204.531 145.945 203.828 145.066 203.828 143.66C203.828 142.254 204.549 141.375 205.656 141.375C206.447 141.375 207.01 141.797 207.273 142.641L208.539 142.184C208.152 140.936 207.098 140.232 205.674 140.232C203.758 140.232 202.457 141.621 202.457 143.66C202.457 145.734 203.74 147.088 205.674 147.088Z" fill="black"></path><path d="M214.217 140.32L211.105 144.908V140.32H209.77V147H211.07L214.217 142.377V147H215.535V140.32H214.217Z" fill="black"></path><path d="M221.74 140.32V142.957H218.752V140.32H217.398V147H218.752V144.188H221.74V147H223.094V140.32H221.74Z" fill="black"></path><path d="M224.957 147H226.311V140.32H224.957V147Z" fill="black"></path><path d="M231.057 139.828C232.041 139.828 232.674 139.336 232.762 138.545L231.795 138.404C231.725 138.809 231.443 139.02 231.057 139.02C230.67 139.02 230.389 138.809 230.318 138.404L229.352 138.545C229.439 139.336 230.072 139.828 231.057 139.828ZM232.621 140.32L229.51 144.908V140.32H228.174V147H229.475L232.621 142.377V147H233.939V140.32H232.621Z" fill="black"></path><path d="M291.658 140.32V143.238H290.059C289.268 143.238 288.898 142.922 288.898 142.201V140.32H287.545V142.324C287.545 143.713 288.389 144.434 289.936 144.434H291.658V147H293.012V140.32H291.658Z" fill="black"></path><path d="M296.211 145.805V144.152H298.83V142.992H296.211V141.516H299.621V140.32H294.875V147H299.709V145.805H296.211Z" fill="black"></path><path d="M303.822 140.32H300.992V147H302.346V144.539H303.822C305.369 144.539 306.301 143.748 306.301 142.43C306.301 141.129 305.369 140.32 303.822 140.32ZM303.664 143.449H302.346V141.463H303.664C304.49 141.463 304.93 141.797 304.93 142.465C304.93 143.115 304.49 143.449 303.664 143.449Z" fill="black"></path><path d="M311.908 143.59C312.453 143.291 312.77 142.764 312.77 142.096C312.77 141.006 311.961 140.32 310.625 140.32H307.549V147H310.678C312.066 147 312.893 146.297 312.893 145.172C312.893 144.434 312.541 143.889 311.908 143.59ZM310.414 141.428C311.1 141.428 311.451 141.691 311.451 142.236C311.451 142.781 311.1 143.045 310.414 143.045H308.85V141.428H310.414ZM310.432 145.893H308.85V144.117H310.432C311.188 144.117 311.557 144.416 311.557 145.014C311.557 145.611 311.188 145.893 310.432 145.893Z" fill="black"></path><path d="M317.076 147.088C319.027 147.088 320.363 145.699 320.363 143.66C320.363 141.586 319.062 140.232 317.076 140.232C315.125 140.232 313.807 141.621 313.807 143.66C313.807 145.734 315.107 147.088 317.076 147.088ZM317.076 145.91C315.934 145.91 315.178 145.031 315.178 143.66C315.178 142.289 315.934 141.41 317.076 141.41C318.219 141.41 318.975 142.289 318.975 143.66C318.975 145.031 318.219 145.91 317.076 145.91Z" fill="black"></path><path d="M326.076 140.32V142.957H323.088V140.32H321.734V147H323.088V144.188H326.076V147H327.43V140.32H326.076Z" fill="black"></path><path d="M333.74 140.32L330.629 144.908V140.32H329.293V147H330.594L333.74 142.377V147H335.059V140.32H333.74Z" fill="black"></path><path d="M339.805 139.828C340.789 139.828 341.422 139.336 341.51 138.545L340.543 138.404C340.473 138.809 340.191 139.02 339.805 139.02C339.418 139.02 339.137 138.809 339.066 138.404L338.1 138.545C338.188 139.336 338.82 139.828 339.805 139.828ZM341.369 140.32L338.258 144.908V140.32H336.922V147H338.223L341.369 142.377V147H342.688V140.32H341.369Z" fill="black"></path><path d="M295.684 198H297.283L294.734 193.957L297.248 191.32H295.578L292.889 194.256V191.32H291.535V194.238L288.863 191.32H287.176L289.689 193.957L287.141 198H288.74L290.639 194.906L291.535 195.82V198H292.889V195.82L293.785 194.906L295.684 198Z" fill="black"></path><path d="M300.623 198.088C302.574 198.088 303.91 196.699 303.91 194.66C303.91 192.586 302.609 191.232 300.623 191.232C298.672 191.232 297.354 192.621 297.354 194.66C297.354 196.734 298.654 198.088 300.623 198.088ZM300.623 196.91C299.48 196.91 298.725 196.031 298.725 194.66C298.725 193.289 299.48 192.41 300.623 192.41C301.766 192.41 302.521 193.289 302.521 194.66C302.521 196.031 301.766 196.91 300.623 196.91Z" fill="black"></path><path d="M309.641 194.59C310.186 194.291 310.502 193.764 310.502 193.096C310.502 192.006 309.693 191.32 308.357 191.32H305.281V198H308.41C309.799 198 310.625 197.297 310.625 196.172C310.625 195.434 310.273 194.889 309.641 194.59ZM308.146 192.428C308.832 192.428 309.184 192.691 309.184 193.236C309.184 193.781 308.832 194.045 308.146 194.045H306.582V192.428H308.146ZM308.164 196.893H306.582V195.117H308.164C308.92 195.117 309.289 195.416 309.289 196.014C309.289 196.611 308.92 196.893 308.164 196.893Z" fill="black"></path><path d="M317.111 191.32H311.152V192.551H313.455V198H314.809V192.551H317.111V191.32Z" fill="black"></path><path d="M322.666 191.32L319.555 195.908V191.32H318.219V198H319.52L322.666 193.377V198H323.984V191.32H322.666Z" fill="black"></path><path d="M328.73 190.828C329.715 190.828 330.348 190.336 330.436 189.545L329.469 189.404C329.398 189.809 329.117 190.02 328.73 190.02C328.344 190.02 328.062 189.809 327.992 189.404L327.025 189.545C327.113 190.336 327.746 190.828 328.73 190.828ZM330.295 191.32L327.184 195.908V191.32H325.848V198H327.148L330.295 193.377V198H331.613V191.32H330.295Z" fill="black"></path><path d="M206.693 194.572C207.273 194.291 207.607 193.799 207.607 193.131C207.607 191.988 206.641 191.232 205.129 191.232C203.828 191.232 202.756 191.918 202.316 192.99L203.477 193.465C203.775 192.797 204.32 192.393 205.094 192.393C205.85 192.393 206.271 192.744 206.271 193.289C206.271 193.781 205.867 194.045 205.305 194.045H204.408V195.117H205.305C206.043 195.117 206.482 195.434 206.482 195.961C206.482 196.576 205.973 196.91 205.111 196.91C204.303 196.91 203.67 196.506 203.389 195.838L202.264 196.418C202.703 197.438 203.775 198.088 205.111 198.088C206.746 198.088 207.818 197.297 207.818 196.102C207.818 195.346 207.414 194.818 206.693 194.572Z" fill="black"></path><path d="M210.455 196.805V195.152H213.074V193.992H210.455V192.516H213.865V191.32H209.119V198H213.953V196.805H210.455Z" fill="black"></path><path d="M220.844 191.32H215.641V194.449C215.641 196.682 215.482 196.752 214.938 196.752H214.586V198C214.973 198.035 215.148 198.035 215.324 198.035C216.678 198.035 216.977 197.086 216.977 194.555V192.551H219.49V198H220.844V191.32Z" fill="black"></path><path d="M224.043 196.805V195.152H226.662V193.992H224.043V192.516H227.453V191.32H222.707V198H227.541V196.805H224.043Z" fill="black"></path><path d="M233.166 191.32V193.957H230.178V191.32H228.824V198H230.178V195.188H233.166V198H234.52V191.32H233.166Z" fill="black"></path><path d="M240.83 191.32L237.719 195.908V191.32H236.383V198H237.684L240.83 193.377V198H242.148V191.32H240.83Z" fill="black"></path><path d="M246.895 190.828C247.879 190.828 248.512 190.336 248.6 189.545L247.633 189.404C247.562 189.809 247.281 190.02 246.895 190.02C246.508 190.02 246.227 189.809 246.156 189.404L245.189 189.545C245.277 190.336 245.91 190.828 246.895 190.828ZM248.459 191.32L245.348 195.908V191.32H244.012V198H245.312L248.459 193.377V198H249.777V191.32H248.459Z" fill="black"></path><path d="M269 58L266.113 63L271.887 63L269 58ZM269 287L271.887 282L266.113 282L269 287ZM268.5 62.5L268.5 282.5L269.5 282.5L269.5 62.5L268.5 62.5Z" fill="black"></path><path d="M384 169L379 166.113L379 171.887L384 169ZM155 169L160 171.887L160 166.113L155 169ZM379.5 168.5L159.5 168.5L159.5 169.5L379.5 169.5L379.5 168.5Z" fill="black"></path><rect x="0.5" y="0.5" width="558" height="344" stroke="black"></rect></svg> 